<?xml version="1.0" encoding="UTF-8"?>
<svg id="Layer_2" data-name="Layer 2" xmlns="http://www.w3.org/2000/svg" viewBox="0 0 669.68 778.69">
  <defs>
    <style>
      .cls-1 {
        fill: #231f20;
        stroke-width: 0px;
      }

      .cls-2 {
        fill: none;
        stroke: #231f20;
        stroke-linecap: round;
        stroke-miterlimit: 10;
        stroke-width: 66px;
      }
    </style>
  </defs>
  <g id="Conjuration">
    <path class="cls-1" d="m22.92,0c-18.87,27.25-11.19,62.12-.06,90.83,30.42,73.9,82.96,138.61,128.96,203.66,13.13,18.34,26.33,36.75,38.23,56.07,1.36,2.2,2.88,5,4.14,7.29,59.38,107.31,117.02,216.73,172.33,326.12,0,0-63.34,0-63.34,0,29.51-58.46,59.58-116.63,90.21-174.52,26.96-50.98,56.84-106.15,84.83-156.67,20.11-34.67,44.01-66.38,67.06-98.66,38.27-54.58,107.41-143.55,112.74-208.81,1.27-15.83-1.94-31.95-11.23-45.31,19.87,17.33,24.52,45.7,22.42,70.82-1.99,25.56-9.38,50.32-18.23,74.21-28.86,76.76-75.77,147.07-114.23,218.76-6.43,12.02-14.57,30.57-20.41,43.06-57.46,124.5-119.26,249.6-181.52,371.84-62.11-122.24-123.86-247.18-181.24-371.64-3.44-7.21-11.54-25.6-15.15-32.38-33.23-61.05-71.62-119.41-100.92-183C14.49,141.56-25.61,44.42,22.92,0h0Z"/>
    <path class="cls-1" d="m106.45,461.19c16.7,24.31,35.49,48.19,66.45,51.04,3.09.41,6.73.52,9.87.46,1.87.05,4.84-.12,6.76-.27.88-.02,2.57-.16,3.44-.28,13.49-1.36,26.17-4.38,39.72-8.14,78.79-22.28,163.33-61.95,246.97-36.33,49.48,15.92,82.34,57.78,89.53,108.43-50.24-54.28-89.19-68.7-162.24-53.41-71.71,13.89-169.72,58.37-241.55,31.73-40.03-14.95-59.85-51.96-58.95-93.24h0Z"/>
    <path class="cls-2" d="m179.64,350c77.95-45.52,174.75,81.34,326.23,0"/>
  </g>
</svg>